<mxfile host="app.diagrams.net" agent="Mozilla/5.0 (Windows NT 10.0; Win64; x64) AppleWebKit/537.36 (KHTML, like Gecko) Chrome/138.0.0.0 Safari/537.36" version="28.0.7">
  <diagram name="Page-1" id="_2MnQbG6f-Cmgu2q_DTR">
    <mxGraphModel dx="1042" dy="574" grid="1" gridSize="10" guides="1" tooltips="1" connect="1" arrows="1" fold="1" page="1" pageScale="1" pageWidth="850" pageHeight="1100" math="0" shadow="0">
      <root>
        <mxCell id="0" />
        <mxCell id="1" parent="0" />
        <mxCell id="EU3GnDkQ0qQkRPW2XFRe-1" value="Users" style="rounded=1;whiteSpace=wrap;html=1;" parent="1" vertex="1">
          <mxGeometry x="305" y="133" width="120" height="60" as="geometry" />
        </mxCell>
        <mxCell id="EU3GnDkQ0qQkRPW2XFRe-2" value="Login" style="rounded=1;whiteSpace=wrap;html=1;" parent="1" vertex="1">
          <mxGeometry x="20" y="133" width="120" height="60" as="geometry" />
        </mxCell>
        <mxCell id="EU3GnDkQ0qQkRPW2XFRe-3" value="Admin" style="rounded=1;whiteSpace=wrap;html=1;" parent="1" vertex="1">
          <mxGeometry x="30" y="20" width="120" height="60" as="geometry" />
        </mxCell>
        <mxCell id="EU3GnDkQ0qQkRPW2XFRe-5" value="has" style="rhombus;whiteSpace=wrap;html=1;" parent="1" vertex="1">
          <mxGeometry x="200" y="143" width="40" height="30" as="geometry" />
        </mxCell>
        <mxCell id="EU3GnDkQ0qQkRPW2XFRe-54" style="edgeStyle=orthogonalEdgeStyle;rounded=0;orthogonalLoop=1;jettySize=auto;html=1;" parent="1" source="EU3GnDkQ0qQkRPW2XFRe-13" edge="1">
          <mxGeometry relative="1" as="geometry">
            <mxPoint x="760" y="250" as="targetPoint" />
          </mxGeometry>
        </mxCell>
        <mxCell id="EU3GnDkQ0qQkRPW2XFRe-13" value="Books" style="rounded=1;whiteSpace=wrap;html=1;" parent="1" vertex="1">
          <mxGeometry x="700" y="133" width="120" height="60" as="geometry" />
        </mxCell>
        <mxCell id="EU3GnDkQ0qQkRPW2XFRe-14" value="buys/sells" style="rhombus;whiteSpace=wrap;html=1;" parent="1" vertex="1">
          <mxGeometry x="540" y="133" width="50" height="40" as="geometry" />
        </mxCell>
        <mxCell id="EU3GnDkQ0qQkRPW2XFRe-26" value="m" style="text;html=1;align=center;verticalAlign=middle;resizable=0;points=[];autosize=1;strokeColor=none;fillColor=none;" parent="1" vertex="1">
          <mxGeometry x="440" y="133" width="30" height="30" as="geometry" />
        </mxCell>
        <mxCell id="EU3GnDkQ0qQkRPW2XFRe-27" value="n" style="text;html=1;align=center;verticalAlign=middle;resizable=0;points=[];autosize=1;strokeColor=none;fillColor=none;" parent="1" vertex="1">
          <mxGeometry x="660" y="133" width="30" height="30" as="geometry" />
        </mxCell>
        <mxCell id="EU3GnDkQ0qQkRPW2XFRe-30" style="edgeStyle=orthogonalEdgeStyle;rounded=0;orthogonalLoop=1;jettySize=auto;html=1;exitX=0;exitY=0.5;exitDx=0;exitDy=0;" parent="1" source="EU3GnDkQ0qQkRPW2XFRe-5" edge="1">
          <mxGeometry relative="1" as="geometry">
            <mxPoint x="140" y="158" as="targetPoint" />
          </mxGeometry>
        </mxCell>
        <mxCell id="EU3GnDkQ0qQkRPW2XFRe-32" style="edgeStyle=orthogonalEdgeStyle;rounded=0;orthogonalLoop=1;jettySize=auto;html=1;exitX=1;exitY=0.5;exitDx=0;exitDy=0;entryX=0.036;entryY=0.403;entryDx=0;entryDy=0;entryPerimeter=0;" parent="1" source="EU3GnDkQ0qQkRPW2XFRe-5" target="EU3GnDkQ0qQkRPW2XFRe-1" edge="1">
          <mxGeometry relative="1" as="geometry" />
        </mxCell>
        <mxCell id="EU3GnDkQ0qQkRPW2XFRe-33" style="edgeStyle=orthogonalEdgeStyle;rounded=0;orthogonalLoop=1;jettySize=auto;html=1;exitX=0;exitY=0.5;exitDx=0;exitDy=0;" parent="1" source="EU3GnDkQ0qQkRPW2XFRe-14" edge="1">
          <mxGeometry relative="1" as="geometry">
            <mxPoint x="420" y="153" as="targetPoint" />
          </mxGeometry>
        </mxCell>
        <mxCell id="EU3GnDkQ0qQkRPW2XFRe-36" style="edgeStyle=orthogonalEdgeStyle;rounded=0;orthogonalLoop=1;jettySize=auto;html=1;exitX=1;exitY=0.5;exitDx=0;exitDy=0;" parent="1" source="EU3GnDkQ0qQkRPW2XFRe-14" edge="1">
          <mxGeometry relative="1" as="geometry">
            <mxPoint x="700" y="153" as="targetPoint" />
          </mxGeometry>
        </mxCell>
        <mxCell id="EU3GnDkQ0qQkRPW2XFRe-47" value="Order" style="rounded=1;whiteSpace=wrap;html=1;" parent="1" vertex="1">
          <mxGeometry x="305" y="290" width="120" height="60" as="geometry" />
        </mxCell>
        <mxCell id="EU3GnDkQ0qQkRPW2XFRe-50" style="edgeStyle=orthogonalEdgeStyle;rounded=0;orthogonalLoop=1;jettySize=auto;html=1;exitX=0.5;exitY=0;exitDx=0;exitDy=0;entryX=0.5;entryY=1;entryDx=0;entryDy=0;" parent="1" source="EU3GnDkQ0qQkRPW2XFRe-48" target="EU3GnDkQ0qQkRPW2XFRe-1" edge="1">
          <mxGeometry relative="1" as="geometry" />
        </mxCell>
        <mxCell id="EU3GnDkQ0qQkRPW2XFRe-51" style="edgeStyle=orthogonalEdgeStyle;rounded=0;orthogonalLoop=1;jettySize=auto;html=1;exitX=0.5;exitY=1;exitDx=0;exitDy=0;entryX=0.5;entryY=0;entryDx=0;entryDy=0;" parent="1" source="EU3GnDkQ0qQkRPW2XFRe-48" target="EU3GnDkQ0qQkRPW2XFRe-47" edge="1">
          <mxGeometry relative="1" as="geometry" />
        </mxCell>
        <mxCell id="EU3GnDkQ0qQkRPW2XFRe-48" value="has" style="rhombus;whiteSpace=wrap;html=1;" parent="1" vertex="1">
          <mxGeometry x="347.5" y="230" width="35" height="30" as="geometry" />
        </mxCell>
        <mxCell id="EU3GnDkQ0qQkRPW2XFRe-52" value="1" style="text;html=1;align=center;verticalAlign=middle;resizable=0;points=[];autosize=1;strokeColor=none;fillColor=none;" parent="1" vertex="1">
          <mxGeometry x="365" y="198" width="30" height="30" as="geometry" />
        </mxCell>
        <mxCell id="EU3GnDkQ0qQkRPW2XFRe-53" value="m" style="text;html=1;align=center;verticalAlign=middle;resizable=0;points=[];autosize=1;strokeColor=none;fillColor=none;" parent="1" vertex="1">
          <mxGeometry x="365" y="260" width="30" height="30" as="geometry" />
        </mxCell>
        <mxCell id="EU3GnDkQ0qQkRPW2XFRe-56" style="edgeStyle=orthogonalEdgeStyle;rounded=0;orthogonalLoop=1;jettySize=auto;html=1;exitX=0.5;exitY=1;exitDx=0;exitDy=0;entryX=1;entryY=0.5;entryDx=0;entryDy=0;" parent="1" source="EU3GnDkQ0qQkRPW2XFRe-55" target="EU3GnDkQ0qQkRPW2XFRe-47" edge="1">
          <mxGeometry relative="1" as="geometry" />
        </mxCell>
        <mxCell id="EU3GnDkQ0qQkRPW2XFRe-55" value="can be" style="rhombus;whiteSpace=wrap;html=1;" parent="1" vertex="1">
          <mxGeometry x="740" y="240" width="40" height="50" as="geometry" />
        </mxCell>
        <mxCell id="EU3GnDkQ0qQkRPW2XFRe-65" value="m" style="text;html=1;align=center;verticalAlign=middle;resizable=0;points=[];autosize=1;strokeColor=none;fillColor=none;" parent="1" vertex="1">
          <mxGeometry x="755" y="198" width="30" height="30" as="geometry" />
        </mxCell>
        <mxCell id="EU3GnDkQ0qQkRPW2XFRe-66" value="n" style="text;html=1;align=center;verticalAlign=middle;resizable=0;points=[];autosize=1;strokeColor=none;fillColor=none;" parent="1" vertex="1">
          <mxGeometry x="425" y="318" width="30" height="30" as="geometry" />
        </mxCell>
      </root>
    </mxGraphModel>
  </diagram>
</mxfile>
